<?xml version="1.0" encoding="UTF-8" standalone="no"?>
<svg width="66px" height="68px" viewBox="0 0 66 68" version="1.1" xmlns="http://www.w3.org/2000/svg" xmlns:xlink="http://www.w3.org/1999/xlink" xmlns:sketch="http://www.bohemiancoding.com/sketch/ns">
    <!-- Generator: Sketch 3.0.3 (7891) - http://www.bohemiancoding.com/sketch -->
    <title>Twiter_Icon</title>
    <desc>Created with Sketch.</desc>
    <defs></defs>
    <g id="Welcome" stroke="none" stroke-width="1" fill="none" fill-rule="evenodd" sketch:type="MSPage">
        <g id="Desktop-HD" sketch:type="MSArtboardGroup" transform="translate(-709.000000, -1777.000000)" fill="#4A4A4A">
            <g id="Footer" sketch:type="MSLayerGroup" transform="translate(-1.000000, 1694.000000)">
                <g id="Social" transform="translate(641.480502, 36.259079)" sketch:type="MSShapeGroup">
                    <path d="M101.004627,113.175754 C118.942018,113.175754 133.483146,98.361808 133.483146,80.0878771 C133.483146,61.8139463 118.942018,47 101.004627,47 C83.0672347,47 68.5261071,61.8139463 68.5261071,80.0878771 C68.5261071,98.361808 83.0672347,113.175754 101.004627,113.175754 Z M114.193936,70.4758848 C114.165939,70.4636612 114.137943,70.4351395 114.109947,70.4086551 C112.466157,69.0498009 110.532405,68.3999142 108.31269,68.4773302 L108.244698,68.3387963 C108.258697,68.3265727 108.272695,68.3265727 108.286693,68.3265727 C110.302435,67.9170829 111.494282,67.4994441 111.850236,67.0430973 C111.97422,66.6743528 111.82224,66.4706265 111.384296,66.419695 C110.370426,66.5337817 109.436546,66.7232471 108.600653,67.0166129 C109.656518,66.419695 110.066465,66.0000189 109.834495,65.784069 C108.792628,65.8105534 107.668772,66.2811611 106.488924,67.2101528 C106.926867,66.5480425 107.092846,66.1915215 106.98286,66.1283664 C106.420932,66.4706265 105.926996,66.8414083 105.50305,67.2325627 C104.611164,68.1106229 103.897256,68.9255279 103.349326,69.663017 L103.32133,69.7261721 C101.909511,71.7471366 100.923637,73.7803247 100.333713,75.854258 L100.115741,76.0070527 L100.073746,76.0437234 C99.2238548,75.1025081 98.2079851,74.3161247 96.9901412,73.6764243 C95.5503257,72.8513329 93.8645418,72.0629123 91.9167915,71.3009761 C89.7930638,70.3332764 87.6393398,69.5326322 85.4596192,68.9112671 C85.4476208,71.0605791 86.639468,72.7759542 89.011164,74.0227589 L89.011164,74.0614669 C88.1752711,74.0472061 87.3653749,74.16333 86.5854749,74.3792799 C86.7354557,76.3757972 88.3392501,77.7489122 91.38286,78.5108484 L91.3688618,78.5495564 C90.1770145,78.4884385 89.1891412,78.857183 88.4212396,79.6191192 C89.4211114,81.3487551 91.1908846,82.1738465 93.7545559,82.1106913 C93.246621,82.340902 92.8486721,82.5914853 92.5887054,82.8746648 C92.1227651,83.3065645 91.9707846,83.8179174 92.1227651,84.4005745 C92.6706949,85.2786347 93.6585682,85.6820127 95.1123819,85.6208948 L95.1943714,85.7105343 C95.1803732,85.7227579 95.166375,85.7370187 95.1523768,85.7492423 C92.6446982,88.0391255 89.6130868,89.0679431 86.0635418,88.8519932 L86.0055493,88.8723659 C83.8398269,88.858105 81.522124,87.9454114 79.0144454,86.1139123 C81.5361222,89.3144518 84.8816933,91.6287821 89.0211627,93.0813503 C93.7645547,94.7213467 98.5099464,94.8211726 103.23734,93.3849025 L103.31933,93.3849025 C108.036725,92.5312895 111.806242,90.1945493 115.013831,86.1750302 C116.493641,84.2681524 117.427521,82.4529515 117.799474,80.7070174 C120.197166,80.7844334 122.994808,80.9148182 122.994808,80.9148182 L122.966811,80.8761102 C122.966811,80.8761102 120.609114,79.0181268 118.291411,78.5984507 L118.291411,78.36824 C118.291411,78.3560164 118.291411,78.3560164 118.305409,78.36824 C120.843084,78.1135822 122.816831,76.1924436 122.816831,76.1924436 C122.816831,76.1924436 119.30728,76.8158459 117.579502,76.2454124 C117.263542,74.1368456 116.139686,72.2177443 114.193936,70.4758848 Z" id="Twiter_Icon"></path>
                </g>
            </g>
        </g>
    </g>
</svg>